<?xml version="1.0" standalone="no"?>
<!DOCTYPE svg PUBLIC "-//W3C//DTD SVG 20010904//EN"
 "http://www.w3.org/TR/2001/REC-SVG-20010904/DTD/svg10.dtd">
<svg version="1.0" xmlns="http://www.w3.org/2000/svg"
 width="1024.000000pt" height="1024.000000pt" viewBox="0 0 1024.000000 1024.000000"
 preserveAspectRatio="xMidYMid meet">

<g transform="translate(0.000000,1024.000000) scale(0.100000,-0.100000)"
fill="#000000" stroke="none">
<path d="M5016 9375 c-33 -9 -98 -36 -145 -62 -237 -130 -306 -153 -453 -153
-59 0 -120 9 -205 30 -153 37 -232 45 -308 31 -113 -21 -158 -51 -315 -212
-80 -81 -167 -162 -195 -179 -73 -45 -156 -67 -316 -85 -171 -19 -216 -29
-294 -68 -99 -49 -158 -120 -255 -306 -128 -246 -184 -298 -419 -396 -145 -61
-221 -112 -271 -182 -53 -74 -73 -133 -99 -288 -42 -248 -82 -322 -258 -477
-165 -145 -222 -227 -244 -353 -9 -56 -8 -93 6 -218 29 -249 12 -324 -119
-542 -92 -152 -114 -201 -128 -286 -15 -88 -2 -160 58 -321 87 -232 91 -303
29 -540 -43 -169 -51 -236 -35 -313 17 -85 50 -148 136 -267 145 -197 155
-231 159 -503 3 -234 10 -268 72 -362 35 -53 78 -92 223 -205 150 -115 203
-204 265 -438 44 -165 71 -223 135 -287 58 -58 122 -94 270 -153 210 -83 291
-156 404 -363 138 -254 233 -313 526 -332 229 -14 298 -47 485 -225 211 -201
293 -229 530 -175 162 37 227 44 313 33 92 -11 147 -32 270 -101 123 -70 203
-97 285 -97 88 0 154 22 287 95 161 89 199 100 345 100 92 -1 141 -6 210 -24
115 -30 196 -36 265 -22 103 21 154 54 283 179 192 187 250 217 452 233 185
15 250 28 324 65 81 40 141 101 199 202 23 39 61 105 84 144 49 85 121 165
187 207 26 17 106 55 179 84 167 69 235 109 285 172 53 66 69 104 112 270 63
240 107 308 300 454 234 177 264 241 265 556 0 237 16 285 147 465 90 122 117
171 138 244 25 85 16 210 -24 346 -17 58 -36 143 -43 190 -14 108 0 181 71
373 62 166 72 247 46 346 -20 78 -42 122 -133 269 -119 191 -134 268 -107 524
20 186 14 251 -30 339 -37 75 -82 125 -201 224 -117 99 -179 177 -213 270 -13
33 -37 134 -55 225 -18 91 -44 188 -57 215 -38 82 -132 168 -236 216 -349 162
-355 167 -504 459 -130 254 -218 311 -522 340 -243 23 -294 48 -487 236 -220
214 -266 239 -435 239 -88 -1 -133 -6 -225 -30 -227 -58 -368 -37 -590 91 -63
36 -140 74 -172 85 -79 26 -180 32 -252 14z m554 -500 c1302 -158 2415 -969
2928 -2135 319 -724 408 -1524 256 -2301 -172 -887 -690 -1715 -1409 -2256
-383 -287 -845 -519 -1270 -636 -349 -96 -664 -134 -1055 -124 -538 13 -985
125 -1485 372 -993 490 -1723 1370 -1990 2400 -163 629 -166 1300 -9 1928 181
724 580 1376 1144 1870 603 529 1309 825 2130 896 155 14 601 5 760 -14z"/>
<path d="M4930 8780 c-683 -34 -1298 -237 -1840 -608 -259 -177 -583 -479
-776 -722 -427 -539 -683 -1174 -765 -1900 -20 -172 -17 -610 4 -790 152
-1241 877 -2279 1987 -2844 381 -194 727 -303 1142 -361 156 -22 581 -31 745
-16 639 60 1232 287 1788 684 475 341 901 852 1150 1382 487 1036 468 2231
-50 3255 -176 347 -388 635 -677 916 -712 695 -1680 1054 -2708 1004z m0 -379
c0 -38 0 -38 -46 -45 -26 -3 -60 -6 -76 -6 -35 0 -42 -16 -34 -74 l7 -43 69 5
70 5 0 -42 0 -41 -42 0 c-77 0 -88 -7 -88 -54 0 -66 6 -69 98 -61 l81 7 7 -36
c3 -21 4 -39 2 -42 -6 -5 -187 -23 -238 -24 l-36 0 -19 223 c-11 122 -20 227
-20 232 0 9 143 30 228 34 37 1 37 1 37 -38z m697 -1 l42 -18 -16 -40 -15 -39
-31 15 c-48 24 -120 27 -150 8 -42 -28 -61 -95 -58 -204 1 -51 49 -94 98 -90
37 3 38 4 43 51 5 40 3 47 -11 47 -36 0 -45 10 -41 45 l4 34 47 -5 c103 -11
112 -14 107 -32 -2 -9 -12 -61 -21 -114 -14 -79 -21 -99 -37 -104 -34 -11
-146 -5 -180 9 -113 47 -151 220 -80 359 30 58 62 86 113 98 46 11 135 2 186
-20z m-1108 -37 c12 -44 7 -49 -56 -59 -24 -3 -43 -9 -43 -11 0 -3 18 -86 40
-184 22 -98 40 -183 40 -188 0 -9 -80 -32 -90 -26 -3 2 -24 88 -46 190 -36
172 -41 186 -59 181 -11 -2 -36 -8 -56 -11 -36 -7 -37 -6 -43 30 -4 20 -6 38
-4 40 2 2 66 17 143 35 76 17 141 33 144 35 11 12 21 2 30 -32z m1446 -32 c39
-11 89 -25 113 -31 42 -11 43 -12 37 -43 -4 -18 -10 -35 -14 -39 -4 -4 -36 1
-71 12 -36 11 -70 20 -77 20 -14 0 -37 -75 -30 -94 3 -7 31 -18 62 -25 l57
-13 -5 -35 c-4 -20 -8 -37 -10 -39 -2 -2 -29 3 -61 11 -31 8 -61 15 -65 15 -8
0 -31 -74 -31 -98 0 -5 36 -17 81 -27 l81 -19 -7 -35 c-4 -20 -8 -38 -10 -42
-4 -5 -253 55 -260 63 -3 3 98 401 110 435 2 7 10 11 17 8 7 -2 45 -13 83 -24z
m-1905 -73 c17 -48 140 -411 140 -414 0 -1 -20 -9 -45 -18 -35 -11 -47 -12
-50 -3 -83 236 -135 387 -140 408 -6 23 -2 28 32 41 52 22 50 22 63 -14z
m2346 -73 c108 -52 134 -82 134 -153 0 -75 -48 -137 -116 -152 -36 -8 -65 -5
-131 15 -23 7 -33 -8 -73 -111 -9 -22 -10 -22 -54 -6 -38 14 -45 20 -40 37 10
32 178 415 182 415 2 0 46 -20 98 -45z m-2601 -35 c9 -17 14 -34 11 -39 -3 -4
-35 -20 -71 -35 -36 -16 -65 -32 -65 -38 0 -17 40 -88 51 -88 5 0 32 11 59 25
27 14 52 25 54 25 10 0 37 -60 32 -69 -3 -5 -30 -19 -61 -31 -30 -12 -55 -26
-55 -32 0 -7 37 -86 45 -96 1 -1 36 14 78 33 42 19 78 35 81 35 11 0 37 -63
29 -70 -4 -5 -60 -33 -124 -63 l-116 -54 -23 46 c-75 152 -170 365 -168 373 3
9 202 106 220 108 4 0 15 -14 23 -30z m3105 -240 c30 -42 34 -76 15 -125 -21
-57 -66 -95 -111 -95 l-34 0 0 -111 0 -110 -50 28 -50 28 6 101 c9 132 -5 141
-66 42 -24 -38 -47 -71 -51 -74 -4 -2 -25 6 -48 19 l-40 23 23 35 c12 19 69
109 125 201 l102 166 80 -51 c44 -28 89 -62 99 -77z m-3490 48 c0 -7 3 -23 6
-35 5 -19 0 -23 -34 -32 -38 -11 -92 -51 -92 -69 0 -4 6 -17 14 -28 13 -17 27
-19 115 -19 97 0 100 -1 130 -30 39 -37 54 -88 40 -137 -13 -49 -87 -114 -152
-133 -65 -19 -64 -20 -70 13 -3 15 -9 35 -12 45 -6 13 -2 17 18 17 59 0 127
46 127 86 0 39 -22 47 -109 39 -85 -7 -105 -2 -153 43 -51 47 -46 131 10 185
51 48 162 86 162 55z m3888 -154 c26 -18 28 -41 6 -72 -18 -26 -50 -28 -76 -5
-24 21 -23 44 2 71 25 26 38 27 68 6z m-111 -77 l21 -19 -109 -140 c-113 -145
-126 -173 -92 -210 20 -22 71 -24 100 -3 11 8 65 66 118 130 54 63 100 115
104 115 4 0 21 -15 39 -33 l32 -33 -103 -117 c-57 -65 -120 -129 -139 -143
-75 -54 -156 -38 -231 45 -30 33 -37 49 -37 82 0 55 17 83 138 237 113 143
103 137 159 89z m241 -29 c18 -18 14 -63 -8 -83 -25 -23 -67 -13 -82 20 -10
22 -8 29 12 50 25 27 59 32 78 13z m-1933 -23 c719 -113 1316 -494 1720 -1100
207 -310 334 -648 391 -1040 27 -183 25 -544 -4 -730 -43 -269 -115 -502 -231
-740 -371 -765 -1083 -1292 -1916 -1420 -145 -23 -417 -30 -560 -16 -576 58
-1092 298 -1508 701 -447 432 -707 958 -778 1570 -15 134 -15 436 1 565 49
410 178 773 391 1100 248 382 575 673 984 875 251 125 533 209 823 245 149 19
540 14 687 -10z m-2429 -39 c26 -26 34 -42 34 -70 0 -36 1 -36 41 -36 35 0 48
-6 80 -39 33 -33 39 -45 39 -81 0 -60 -21 -96 -99 -174 l-68 -68 -143 160
c-78 88 -148 169 -156 181 -14 19 -10 23 52 75 117 97 164 108 220 52z m4551
-329 c46 -51 83 -96 84 -102 0 -5 -12 -20 -28 -32 l-29 -23 -50 60 c-27 33
-51 60 -54 60 -3 0 -22 -16 -43 -36 l-38 -35 43 -51 42 -51 -29 -23 c-17 -13
-33 -24 -36 -24 -4 0 -22 20 -40 45 -19 24 -37 45 -40 45 -4 0 -37 -27 -73
-60 -37 -33 -71 -60 -76 -60 -5 0 -21 16 -35 35 l-27 34 59 54 c32 29 108 99
168 155 61 56 112 101 115 101 3 0 42 -42 87 -92z m-4933 44 l27 -28 -49 -54
-50 -55 40 -33 40 -34 49 49 49 48 27 -27 28 -27 -46 -46 -46 -46 44 -41 45
-42 49 55 c26 30 49 58 49 63 0 13 14 7 43 -18 l27 -24 -82 -98 c-45 -54 -84
-99 -87 -101 -10 -4 -342 290 -339 300 5 14 142 188 148 188 4 0 19 -13 34
-29z m5195 -388 l81 -123 -38 -24 -37 -23 -24 41 c-13 22 -25 42 -27 44 -1 2
-73 -47 -159 -108 -86 -62 -158 -110 -159 -108 -28 38 -46 68 -46 76 0 9 168
133 262 193 21 13 38 27 38 32 0 4 -11 25 -25 46 l-24 39 32 21 c18 11 35 20
39 18 3 -1 42 -57 87 -124z m-5374 -30 c66 -58 144 -128 173 -154 l53 -48 -35
-55 -35 -55 -82 26 c-45 13 -113 35 -150 48 l-68 23 114 -110 114 -110 -25
-51 c-15 -29 -28 -54 -30 -56 -4 -4 -434 139 -434 145 0 12 46 84 53 84 7 0
165 -58 292 -106 10 -4 -36 43 -103 105 -67 63 -122 118 -122 123 0 5 11 29
25 53 l26 43 162 -54 c89 -30 155 -48 147 -41 -8 8 -68 58 -132 112 -65 54
-118 102 -118 107 0 10 43 78 50 78 3 0 59 -48 125 -107z m5362 -2855 c15 -7
29 -13 31 -14 2 -1 -5 -18 -14 -38 -11 -22 -14 -40 -8 -45 8 -8 188 -91 241
-112 22 -8 22 -9 7 -46 -9 -21 -17 -39 -18 -40 -2 -2 -62 24 -134 57 -72 33
-135 60 -139 60 -5 0 -14 -14 -20 -31 -10 -26 -16 -30 -35 -24 -47 14 -48 6
36 208 18 42 16 41 53 25z m-5380 -230 c-7 -54 -40 -93 -103 -124 -77 -38
-137 -41 -193 -12 -38 20 -51 34 -82 98 -20 41 -36 77 -34 78 2 2 79 37 172
77 l168 73 38 -76 c30 -60 37 -85 34 -114z m5308 -78 c33 -12 75 -58 75 -80 0
-22 13 -27 92 -36 35 -4 66 -9 70 -11 5 -2 -1 -22 -13 -44 -14 -29 -25 -39
-37 -35 -41 12 -135 25 -143 20 -18 -11 -7 -24 51 -60 l59 -36 -21 -38 -22
-37 -105 65 c-58 36 -128 79 -156 95 -27 17 -51 32 -53 33 -2 1 10 28 26 60
51 101 104 132 177 104z m-5182 -107 l47 -78 -22 -17 c-33 -26 -41 -23 -67 27
l-23 44 -38 -21 -37 -22 29 -45 28 -46 -22 -17 c-13 -10 -26 -18 -30 -18 -4 0
-19 20 -34 45 -14 25 -29 45 -32 45 -12 0 -72 -40 -72 -47 0 -5 16 -31 35 -60
l34 -51 -24 -16 c-13 -9 -27 -16 -30 -16 -6 0 -113 164 -117 180 -3 9 295 187
317 189 6 1 32 -34 58 -76z m114 -175 l22 -31 -114 -89 c-63 -49 -117 -98
-120 -109 -8 -25 19 -69 44 -69 19 0 98 52 197 131 l61 48 21 -29 c12 -16 22
-32 22 -35 0 -3 -54 -46 -121 -95 -112 -84 -123 -90 -168 -90 -102 0 -164 110
-111 197 16 28 225 203 240 203 3 0 15 -14 27 -32z m4920 -9 c56 -27 130 -110
144 -162 9 -35 8 -48 -8 -86 -31 -77 -110 -111 -188 -81 -34 13 -133 106 -152
144 -20 38 -13 119 13 148 53 60 118 72 191 37z m-4612 -408 l-23 -24 -25 29
-25 29 -23 -20 c-13 -11 -68 -60 -122 -109 l-98 -90 -24 30 c-13 16 -24 32
-25 35 0 3 52 50 115 104 63 54 115 101 115 105 0 4 -9 15 -20 25 -26 23 -25
39 3 58 21 16 24 14 99 -66 l77 -82 -24 -24z m4400 104 c56 -32 106 -104 113
-160 6 -55 -15 -98 -76 -158 l-47 -46 -137 130 -138 131 46 48 c88 93 151 107
239 55z m-4257 -184 c11 -6 30 -25 42 -42 l22 -30 -22 -24 -22 -23 -30 34
c-33 37 -67 44 -89 18 -11 -13 -10 -23 6 -62 10 -26 20 -63 22 -83 9 -67 -68
-123 -143 -105 -29 8 -114 82 -114 101 0 6 10 21 23 33 l24 22 24 -37 c30 -45
73 -63 97 -39 15 15 15 21 -6 81 -27 73 -24 111 12 144 42 39 95 44 154 12z
m3936 15 c6 -7 61 -71 121 -141 61 -70 111 -130 112 -133 1 -4 -11 -17 -26
-29 l-29 -23 -108 45 c-60 25 -117 49 -126 55 -34 20 -27 9 52 -81 44 -50 80
-95 80 -99 0 -5 -13 -18 -28 -29 l-29 -20 -121 146 -122 146 32 27 32 27 85
-35 c47 -19 103 -43 124 -54 22 -11 41 -18 43 -16 2 2 -35 42 -81 88 l-85 84
27 28 c31 32 32 33 47 14z m-3704 -217 c20 -11 44 -33 53 -48 15 -26 15 -29
-5 -49 l-22 -22 -25 30 c-15 17 -40 33 -59 36 -29 6 -37 2 -81 -43 -80 -79
-82 -137 -6 -176 l45 -22 -26 -28 c-25 -27 -27 -28 -52 -11 -65 41 -102 91
-102 139 0 65 66 161 133 194 53 27 99 27 147 0z m3439 -86 c36 -32 99 -89
139 -128 l74 -69 -28 -22 -28 -23 -34 29 c-34 28 -37 28 -61 14 -63 -38 -65
-40 -53 -85 12 -49 11 -54 -28 -74 -28 -14 -28 -14 -38 23 -5 20 -28 103 -51
184 -22 82 -41 152 -41 157 0 10 59 51 74 51 5 0 38 -26 75 -57z m-3289 -20
c14 -9 27 -18 28 -19 2 -1 -12 -30 -32 -64 -20 -33 -36 -63 -36 -65 0 -6 90
-58 94 -54 1 2 17 31 35 64 19 33 35 61 36 63 6 6 65 -28 65 -38 0 -12 -169
-308 -180 -315 -9 -5 -70 21 -70 30 0 2 16 31 35 64 19 32 35 63 35 68 0 11
-81 54 -91 48 -4 -3 -22 -30 -39 -60 -17 -30 -34 -55 -36 -55 -13 0 -64 32
-61 38 23 44 183 312 187 312 3 0 17 -8 30 -17z m3059 -69 c6 -15 10 -28 9
-29 -2 -1 -18 -10 -36 -19 l-33 -17 29 -52 c68 -122 124 -229 120 -231 -1 -2
-17 -11 -35 -20 l-32 -16 -72 138 c-40 75 -74 139 -75 141 -2 2 -19 -8 -38
-23 l-35 -26 -17 32 c-9 18 -13 34 -8 35 5 2 50 28 99 58 50 30 95 54 101 55
6 0 16 -12 23 -26z m-2705 -116 l85 -42 -15 -28 c-17 -33 -15 -33 -64 -8 -22
11 -43 20 -48 20 -7 0 -42 -62 -42 -74 0 -2 18 -11 40 -21 43 -19 48 -30 26
-60 -13 -19 -15 -19 -55 0 -23 10 -43 16 -46 14 -2 -3 -11 -21 -19 -40 l-15
-35 54 -27 54 -26 -16 -29 -17 -29 -75 36 c-42 20 -81 40 -88 44 -8 5 4 39 41
115 29 59 65 135 81 170 15 34 29 62 31 62 2 0 42 -19 88 -42z m2455 -45 c1
-19 -4 -23 -28 -23 -16 0 -39 -9 -52 -19 -32 -26 -16 -53 37 -64 118 -25 156
-54 156 -121 0 -49 -25 -84 -75 -107 -62 -28 -105 -25 -117 7 -14 35 -14 34
23 34 36 0 97 33 97 52 0 28 -21 40 -90 54 -82 15 -105 31 -121 84 -20 65 22
117 113 145 47 14 56 7 57 -42z m-2229 -48 c88 -35 108 -49 121 -93 16 -53
-14 -122 -60 -141 -35 -15 -37 -26 -20 -115 6 -32 8 -60 5 -63 -2 -3 -20 0
-40 7 -33 11 -35 13 -46 83 -19 120 -23 122 -59 24 l-24 -64 -37 14 -37 15 65
179 c36 98 66 179 67 179 1 0 30 -11 65 -25z m1944 -39 c69 -29 98 -110 59
-165 -16 -24 -16 -25 45 -82 34 -32 62 -60 62 -63 0 -5 -59 -26 -72 -26 -5 0
-36 25 -69 57 -32 31 -62 54 -64 51 -3 -3 2 -36 11 -73 18 -71 14 -84 -28 -85
-10 0 -21 0 -25 -1 -6 0 -115 353 -110 357 5 5 133 43 145 43 7 1 27 -5 46
-13z m-252 -86 c4 -26 1 -31 -21 -36 -70 -16 -81 -20 -81 -26 0 -5 0 -18 0
-30 0 -42 12 -50 61 -39 24 5 45 9 46 7 2 -1 6 -16 9 -33 6 -30 5 -31 -41 -38
l-47 -7 5 -40 c3 -22 8 -42 10 -45 3 -2 31 2 62 10 56 14 57 14 66 -10 13 -36
11 -42 -13 -48 -90 -22 -183 -43 -183 -42 -2 4 -68 353 -69 361 0 5 33 17 74
26 111 26 117 25 122 -10z m-1221 -1 c47 -16 52 -22 38 -53 -10 -21 -17 -26
-33 -20 -41 13 -88 10 -100 -8 -9 -15 -1 -27 52 -76 55 -51 62 -62 62 -95 0
-49 -24 -95 -56 -107 -38 -15 -99 -12 -144 6 -44 18 -44 18 -29 62 l10 30 34
-19 c21 -12 47 -19 67 -17 27 2 34 8 36 28 2 20 -9 35 -52 73 -65 56 -76 89
-49 144 28 59 87 77 164 52z m959 -32 c0 -20 -58 -368 -62 -373 -2 -1 -22 -6
-44 -10 l-41 -6 -65 183 -65 184 36 6 c20 4 37 6 39 4 2 -2 23 -65 47 -142 49
-155 47 -156 66 34 11 111 14 122 33 126 42 8 56 7 56 -6z m-667 -7 c26 0 28
-3 25 -32 l-3 -33 -57 3 -58 4 0 -46 0 -46 45 0 c45 0 45 0 45 -35 l0 -34 -49
6 -48 5 -7 -42 c-4 -24 -5 -45 -2 -47 2 -2 29 -7 60 -10 l56 -6 0 -34 0 -35
-67 7 c-38 3 -84 8 -103 11 l-36 5 12 107 c7 59 15 142 19 186 l7 79 66 -7
c37 -3 80 -6 95 -6z m283 -25 c67 -28 83 -129 29 -185 l-25 -26 35 -73 c19
-40 35 -75 35 -77 0 -2 -18 -4 -40 -4 -39 0 -40 1 -75 69 -44 87 -55 95 -55
38 0 -25 -3 -59 -6 -76 -6 -27 -10 -31 -40 -31 l-34 0 0 138 c0 75 3 161 6
190 l7 52 64 0 c35 0 79 -7 99 -15z"/>
<path d="M6345 8085 c-8 -19 -22 -50 -30 -69 -14 -32 -13 -34 11 -45 52 -24
96 -9 113 39 14 41 -1 73 -45 93 l-34 17 -15 -35z"/>
<path d="M6739 7859 c-32 -50 -32 -52 -13 -66 36 -26 63 -27 90 -2 32 30 32
72 -2 98 -15 12 -30 21 -34 21 -4 0 -23 -23 -41 -51z"/>
<path d="M4835 7568 c-1014 -114 -1843 -866 -2059 -1868 -40 -187 -50 -293
-51 -520 0 -300 29 -490 117 -758 244 -743 858 -1349 1599 -1578 242 -74 414
-99 689 -99 225 0 302 8 500 52 237 52 532 173 740 303 471 294 847 768 1026
1294 36 104 71 244 95 381 27 152 37 500 20 667 -42 395 -169 748 -387 1075
-393 588 -998 962 -1694 1048 -137 17 -461 19 -595 3z m-130 -638 c49 -31 101
-95 120 -149 40 -114 38 -321 -4 -430 -44 -116 -127 -173 -253 -174 -43 0 -88
6 -109 15 -128 55 -187 199 -176 432 7 169 52 262 149 312 71 37 209 33 273
-6z m-535 -355 l0 -385 -90 0 -90 0 0 270 c0 149 -3 270 -6 270 -3 0 -37 -20
-75 -45 -38 -25 -72 -45 -75 -45 -2 0 -3 39 -2 87 l3 88 115 72 c105 67 120
73 168 73 l52 0 0 -385z m1174 373 c25 -8 59 -31 87 -58 60 -60 88 -139 96
-275 17 -288 -89 -442 -298 -438 -62 1 -139 30 -177 66 -68 63 -96 179 -89
369 5 149 19 202 69 262 63 76 197 108 312 74z m563 -64 c50 -38 66 -83 61
-171 -5 -108 -54 -163 -151 -171 -59 -5 -97 10 -133 50 -60 66 -58 212 4 282
48 53 155 59 219 10z m363 21 c0 -2 -52 -94 -116 -202 -64 -109 -157 -269
-207 -355 l-92 -158 -47 0 c-47 0 -57 7 -39 26 5 5 82 137 171 294 89 157 178
311 197 343 l34 57 50 0 c27 0 49 -2 49 -5z m59 -364 c49 -35 66 -75 66 -161
0 -86 -19 -130 -75 -167 -44 -30 -131 -32 -177 -3 -41 25 -59 53 -73 114 -21
96 20 199 95 232 43 20 125 13 164 -15z m-1972 -637 c63 -13 142 -42 162 -60
3 -2 -47 -150 -54 -162 -1 -1 -28 10 -61 24 -115 52 -240 41 -264 -22 -31 -79
4 -125 130 -173 169 -66 226 -108 255 -190 48 -138 -23 -303 -157 -361 -66
-28 -167 -37 -249 -21 -66 13 -162 52 -173 70 -5 8 28 145 39 159 1 1 31 -13
66 -30 53 -27 78 -33 145 -36 78 -4 83 -3 113 25 23 20 34 40 38 68 8 63 -24
94 -152 145 -166 67 -212 109 -241 220 -33 131 16 254 125 313 86 47 160 56
278 31z m2529 -15 c146 -55 222 -172 243 -373 28 -272 -47 -469 -207 -548 -65
-32 -70 -33 -192 -33 -118 0 -128 2 -184 29 -149 73 -215 217 -215 471 -1 225
66 368 204 436 106 52 241 59 351 18z m-1691 6 c32 -9 77 -24 100 -34 l42 -19
-25 -78 c-29 -92 -28 -90 -44 -77 -57 45 -239 60 -306 25 -84 -43 -129 -171
-118 -332 14 -206 73 -279 228 -280 37 0 78 4 92 10 26 9 26 11 26 115 l0 105
-65 0 -65 0 0 75 0 75 155 0 155 0 0 -234 0 -234 -47 -20 c-100 -43 -165 -56
-273 -55 -128 0 -195 23 -267 88 -91 81 -133 207 -133 401 0 315 141 481 410
483 42 1 102 -6 135 -14z m-1628 -9 c152 -41 250 -142 282 -294 16 -75 13
-255 -4 -331 -20 -82 -68 -173 -114 -213 -69 -61 -147 -88 -278 -98 -65 -4
-161 -7 -213 -5 l-95 4 -3 475 -2 476 187 0 c129 0 205 -5 240 -14z m2186
-298 c47 -172 95 -344 105 -382 l19 -70 37 135 c20 74 67 244 104 379 l68 245
111 3 112 3 -158 -473 -158 -473 -120 -3 -121 -3 -41 123 c-49 150 -261 818
-261 824 0 2 49 4 108 4 l109 0 86 -312z m-1599 -903 c79 -38 124 -146 113
-272 -10 -108 -47 -170 -122 -204 -48 -22 -142 -25 -188 -5 -75 31 -127 132
-127 246 0 120 52 215 135 246 51 18 138 13 189 -11z m1434 1 c79 -41 114
-113 115 -236 1 -159 -64 -246 -190 -257 -164 -15 -252 87 -241 281 7 120 49
190 135 222 47 18 137 13 181 -10z m-2066 -93 l3 -107 70 107 70 107 63 0 c34
0 62 -2 62 -5 0 -2 -33 -51 -74 -108 l-73 -103 78 -142 77 -142 -66 0 -67 0
-50 96 -49 96 -23 -28 c-19 -24 -23 -41 -23 -96 l0 -68 -55 0 -55 0 0 250 0
250 55 0 54 0 3 -107z m1052 -54 l91 -157 3 159 2 159 50 0 50 0 0 -250 0
-250 -53 0 -53 0 -90 151 -89 150 -3 -150 -3 -151 -49 0 -50 0 0 251 0 250 51
-3 52 -3 91 -156z m616 116 l0 -45 -90 0 -90 0 0 -66 0 -65 78 2 77 2 3 -41 3
-42 -80 0 -81 0 0 -100 0 -100 -55 0 -55 0 0 250 0 250 145 0 145 0 0 -45z
m897 22 c94 -50 109 -178 28 -245 l-34 -27 59 -103 59 -103 -61 3 -62 3 -49
93 c-41 76 -54 92 -74 92 -22 0 -23 -2 -23 -95 l0 -95 -50 0 -50 0 0 251 0
252 113 -5 c78 -3 122 -10 144 -21z m418 -139 c44 -139 65 -186 65 -145 0 6
21 78 47 160 l46 147 74 0 73 0 0 -250 0 -250 -50 0 -50 0 -1 173 -1 172 -51
-157 -50 -158 -48 0 -48 0 -50 153 -50 152 -1 -167 0 -168 -50 0 -50 0 0 243
c0 134 3 247 7 251 4 4 36 6 72 4 l65 -3 51 -157z m-790 -605 c36 -38 65 -75
65 -83 0 -9 -170 -185 -378 -393 -277 -276 -384 -377 -401 -377 -16 0 -83 60
-237 212 -118 117 -217 221 -220 231 -5 15 11 36 62 88 38 38 75 69 83 69 8 0
81 -66 163 -147 l148 -148 308 308 c177 177 315 307 325 307 10 0 47 -30 82
-67z m-1674 -293 l23 -69 74 -3 74 -3 -56 -40 c-30 -22 -56 -42 -56 -45 0 -3
8 -36 19 -73 10 -37 17 -67 15 -67 -2 0 -31 21 -63 46 l-60 46 -60 -46 c-33
-25 -62 -46 -65 -46 -2 0 6 32 20 72 13 39 23 72 21 73 -1 1 -28 20 -61 43
l-58 41 78 3 77 3 19 55 c25 77 27 80 32 80 3 0 15 -31 27 -70z m2226 3 l20
-68 78 -3 79 -3 -50 -35 c-27 -20 -54 -39 -61 -42 -10 -6 -8 -24 8 -76 11 -37
19 -69 17 -71 -2 -2 -29 16 -61 41 l-57 45 -59 -45 c-33 -25 -61 -46 -64 -46
-2 0 6 32 19 72 13 40 20 74 16 77 -5 4 -33 22 -63 41 l-54 35 77 3 77 3 23
69 c12 39 25 70 28 70 4 0 16 -30 27 -67z"/>
<path d="M4496 6790 c-33 -39 -41 -81 -41 -210 0 -136 10 -193 41 -230 21 -24
34 -30 66 -30 96 0 113 37 113 245 0 138 -3 165 -19 195 -26 48 -44 59 -93 60
-34 0 -46 -5 -67 -30z"/>
<path d="M5183 6805 c-35 -25 -53 -104 -53 -235 0 -187 28 -250 113 -250 82 0
110 68 109 262 -1 180 -29 238 -114 238 -19 0 -43 -7 -55 -15z"/>
<path d="M5770 6815 c-19 -23 -24 -124 -8 -155 10 -18 22 -25 43 -25 21 0 33
7 42 25 16 32 16 108 0 140 -15 30 -58 38 -77 15z"/>
<path d="M6190 6461 c-14 -27 -12 -131 3 -161 17 -33 51 -37 71 -8 18 26 22
138 6 169 -7 12 -21 19 -40 19 -19 0 -33 -7 -40 -19z"/>
<path d="M6640 5722 c-67 -33 -95 -98 -106 -247 -13 -175 26 -309 102 -353 51
-30 158 -28 201 4 75 55 97 136 91 328 -3 115 -7 138 -30 187 -21 46 -33 60
-70 78 -55 26 -139 28 -188 3z"/>
<path d="M3340 5425 l0 -305 69 0 c120 0 187 37 230 129 24 51 26 66 26 186 0
115 -3 135 -22 171 -43 82 -127 124 -245 124 l-58 0 0 -305z"/>
<path d="M3982 4587 c-31 -33 -46 -123 -32 -192 20 -94 67 -129 135 -101 47
20 65 64 65 156 0 78 -18 133 -48 149 -37 20 -96 13 -120 -12z"/>
<path d="M5415 4584 c-41 -44 -47 -183 -11 -252 32 -62 122 -63 164 -1 21 31
23 43 20 131 -3 86 -6 99 -27 122 -20 21 -34 26 -73 26 -40 0 -53 -5 -73 -26z"/>
<path d="M5938 4604 c-5 -4 -8 -34 -8 -66 l0 -58 45 0 c73 0 108 51 68 99 -18
21 -92 39 -105 25z"/>
<path d="M2939 7551 l-23 -18 35 -41 c19 -23 37 -42 41 -42 12 0 48 52 48 70
0 22 -31 50 -57 50 -12 0 -31 -8 -44 -19z"/>
<path d="M3078 7421 l-32 -29 38 -47 38 -46 29 27 c34 33 38 75 9 104 -27 27
-44 25 -82 -9z"/>
<path d="M2293 3892 c-61 -26 -103 -50 -103 -59 0 -24 47 -63 77 -63 38 0 129
44 142 69 15 26 14 64 -1 83 -12 14 -24 10 -115 -30z"/>
<path d="M7717 3682 c-25 -27 -21 -36 23 -61 45 -25 55 -23 64 15 13 52 -51
86 -87 46z"/>
<path d="M7533 3408 c-31 -40 -20 -80 39 -134 74 -69 104 -78 138 -42 25 27
25 54 0 95 -42 70 -148 118 -177 81z"/>
<path d="M7295 3108 l-26 -23 86 -85 86 -85 20 24 c39 48 10 126 -65 172 -41
25 -69 24 -101 -3z"/>
<path d="M6781 2675 c31 -87 55 -145 59 -145 3 0 16 9 30 20 l25 19 -59 58
c-32 32 -57 53 -55 48z"/>
<path d="M4116 2293 c-18 -51 -12 -63 31 -63 22 0 53 33 53 57 0 15 -40 53
-56 53 -7 0 -19 -21 -28 -47z"/>
<path d="M6009 2303 c-16 -4 -16 -8 -1 -54 15 -46 18 -50 41 -44 30 8 41 21
41 51 0 38 -36 59 -81 47z"/>
<path d="M5100 2110 c0 -48 1 -50 28 -50 35 0 52 16 52 50 0 34 -17 50 -52 50
-27 0 -28 -2 -28 -50z"/>
</g>
</svg>
