<?xml version="1.0" standalone="no"?>
<!DOCTYPE svg PUBLIC "-//W3C//DTD SVG 20010904//EN"
 "http://www.w3.org/TR/2001/REC-SVG-20010904/DTD/svg10.dtd">
<svg version="1.0" xmlns="http://www.w3.org/2000/svg"
 width="238.000000pt" height="250.000000pt" viewBox="0 0 238.000000 250.000000"
 preserveAspectRatio="xMidYMid meet">

<g transform="translate(0.000000,250.000000) scale(0.100000,-0.100000)"
fill="#000000" stroke="none">
<path d="M1168 2013 c12 -2 32 -2 45 0 12 2 2 4 -23 4 -25 0 -35 -2 -22 -4z"/>
<path d="M1060 2000 c-11 -7 -5 -8 20 -4 43 8 51 14 19 14 -13 0 -31 -5 -39
-10z"/>
<path d="M1280 2000 c34 -11 60 -11 35 0 -11 5 -29 8 -40 8 -16 0 -15 -2 5 -8z"/>
<path d="M1350 1980 c8 -5 22 -9 30 -9 10 0 8 3 -5 9 -27 12 -43 12 -25 0z"/>
<path d="M1407 1959 c7 -7 15 -10 18 -7 3 3 -2 9 -12 12 -14 6 -15 5 -6 -5z"/>
<path d="M1451 1937 c2 -1 15 -11 29 -22 l25 -20 -19 23 c-11 12 -24 22 -29
22 -6 0 -8 -1 -6 -3z"/>
<path d="M851 1478 c-2 -104 74 -225 181 -283 45 -25 67 -30 145 -33 86 -4 96
-2 155 25 113 54 185 152 196 267 5 59 5 60 -13 42 -18 -17 -19 -17 -31 -1 -9
12 -19 15 -31 10 -10 -4 -27 -7 -39 -6 -11 1 -28 -7 -39 -19 -10 -11 -24 -20
-30 -20 -14 0 -25 -31 -25 -67 0 -13 -4 -23 -10 -23 -5 0 -10 9 -10 19 0 11
-3 28 -7 38 -6 14 -9 10 -13 -17 -5 -35 -6 -35 -59 -38 -37 -2 -57 1 -62 10
-5 8 -9 9 -9 2 0 -16 -39 -12 -50 6 -9 13 -10 13 -11 0 -1 -8 -1 -18 0 -23 1
-4 -8 -2 -19 5 -14 9 -20 24 -20 49 0 29 -5 38 -27 49 -16 8 -31 14 -35 16 -5
1 -9 3 -10 4 -2 1 -13 4 -26 5 -20 2 -23 -1 -18 -19 3 -11 6 -26 6 -33 0 -7 7
-10 17 -6 12 5 15 2 10 -10 -3 -9 -2 -17 3 -17 6 0 10 -7 10 -15 0 -8 11 -25
25 -39 14 -14 25 -30 25 -36 0 -5 3 -9 8 -9 13 3 72 -25 72 -34 0 -4 5 -5 11
-1 6 3 15 0 20 -7 7 -12 9 -12 9 0 0 11 3 11 15 1 22 -19 9 -30 -25 -20 -17 5
-30 6 -30 3 0 -3 -7 0 -15 7 -8 7 -15 9 -15 6 0 -4 -13 2 -29 13 -25 18 -30
19 -35 5 -3 -8 -2 -12 4 -9 6 3 13 0 16 -9 3 -8 12 -12 20 -9 8 3 14 1 14 -5
0 -5 16 -13 36 -17 24 -4 33 -10 27 -16 -11 -11 -103 10 -103 23 0 4 -7 8 -15
8 -8 0 -15 5 -15 10 0 6 -7 10 -15 10 -8 0 -15 7 -15 15 0 8 -7 15 -15 15 -8
0 -15 7 -15 15 0 8 -5 15 -11 15 -6 0 -9 6 -6 14 3 8 -1 17 -9 20 -9 3 -13 10
-9 15 3 5 1 12 -5 16 -18 11 -10 27 11 22 20 -5 20 -5 4 13 -10 11 -16 29 -13
43 3 17 0 23 -14 23 -10 0 -19 -7 -19 -16 -1 -8 -5 -1 -9 15 -7 27 -8 25 -9
-17z m627 -7 c2 -13 -4 -31 -13 -41 -16 -18 -16 -18 4 -13 21 5 29 -11 11 -22
-6 -4 -8 -11 -5 -16 4 -5 0 -12 -9 -15 -8 -3 -12 -12 -9 -20 3 -8 0 -14 -6
-14 -6 0 -11 -7 -11 -15 0 -8 -7 -15 -15 -15 -8 0 -15 -7 -15 -15 0 -8 -7 -15
-15 -15 -8 0 -15 -4 -15 -10 0 -5 -6 -10 -14 -10 -8 0 -16 -5 -18 -12 -5 -14
-38 -3 -38 13 0 6 6 9 14 6 8 -3 17 1 20 9 3 9 10 12 16 9 6 -4 7 1 3 11 -6
16 -7 15 -20 -2 -7 -10 -13 -14 -13 -10 0 5 -7 3 -15 -4 -8 -7 -15 -9 -15 -5
0 4 -7 2 -15 -5 -8 -7 -15 -9 -15 -6 0 4 -5 4 -12 0 -18 -11 -58 -14 -58 -5 0
5 7 14 15 21 12 10 15 10 15 -1 0 -12 2 -12 9 0 5 7 14 10 20 7 6 -4 11 -3 11
2 0 6 11 13 24 16 29 7 106 81 106 101 0 8 4 15 10 15 5 0 6 8 3 17 -5 12 -2
15 10 10 12 -5 17 -1 17 12 0 50 32 68 38 22z m-168 -240 c0 -12 -48 -23 -62
-15 -8 5 -5 10 8 15 27 11 54 11 54 0z m-140 -16 c-7 -8 -17 -15 -22 -15 -6 0
-5 7 2 15 7 8 17 15 22 15 6 0 5 -7 -2 -15z m66 -12 c-7 -7 -26 7 -26 19 0 6
6 6 15 -2 9 -7 13 -15 11 -17z"/>
<path d="M1430 1385 c0 -8 -5 -15 -12 -15 -6 0 -8 -3 -5 -7 4 -3 0 -15 -10
-25 -22 -24 -8 -23 17 2 11 11 17 20 13 20 -4 0 -2 5 5 12 15 15 16 28 2 28
-5 0 -10 -7 -10 -15z"/>
<path d="M1370 1310 c0 -5 5 -10 11 -10 5 0 7 5 4 10 -3 6 -8 10 -11 10 -2 0
-4 -4 -4 -10z"/>
<path d="M670 1448 c0 -13 5 -30 10 -38 7 -11 10 -5 10 23 0 20 -4 37 -10 37
-5 0 -10 -10 -10 -22z"/>
<path d="M1214 1456 c-3 -8 -4 -27 -1 -43 3 -24 4 -23 6 9 1 26 6 38 19 41 16
4 16 5 -1 6 -10 0 -20 -5 -23 -13z"/>
<path d="M1696 1459 c-9 -30 -13 -68 -5 -64 10 7 23 65 15 72 -3 3 -8 0 -10
-8z"/>
<path d="M1072 1415 c0 -16 2 -22 5 -12 2 9 2 23 0 30 -3 6 -5 -1 -5 -18z"/>
<path d="M1182 1410 c0 -14 2 -19 5 -12 2 6 2 18 0 25 -3 6 -5 1 -5 -13z"/>
<path d="M1240 1405 c0 -15 4 -24 10 -20 6 3 10 12 10 20 0 8 -4 17 -10 20 -6
4 -10 -5 -10 -20z"/>
<path d="M930 1391 c0 -6 5 -13 10 -16 6 -4 8 -11 5 -16 -4 -5 -2 -9 4 -9 5 0
13 5 16 10 3 6 1 10 -4 10 -6 0 -11 7 -11 15 0 8 -4 15 -10 15 -5 0 -10 -4
-10 -9z"/>
<path d="M965 1330 c-3 -6 1 -10 9 -10 9 0 16 -4 16 -10 0 -5 5 -10 10 -10 16
0 11 14 -10 27 -12 8 -21 9 -25 3z"/>
<path d="M969 1008 l-16 -33 43 4 c32 2 44 -1 44 -10 0 -8 18 -22 40 -31 22
-9 40 -20 39 -25 -1 -4 -1 -17 0 -27 1 -19 2 -18 24 2 26 24 66 29 86 10 10
-11 11 -8 6 15 -7 25 -5 27 24 27 17 0 31 4 31 9 0 9 42 20 88 24 18 2 22 8
22 35 0 17 -2 32 -4 32 -2 0 -23 -7 -47 -16 -24 -8 -80 -18 -124 -21 -76 -5
-92 -3 -220 32 -15 4 -24 -2 -36 -27z"/>
<path d="M814 695 c-21 -48 -64 -181 -78 -237 l-6 -27 67 34 c38 19 71 35 75
35 3 0 19 -24 36 -52 36 -64 71 -109 69 -88 -3 27 14 143 32 221 l18 75 -44 0
c-56 1 -141 41 -145 69 -2 14 -9 5 -24 -30z m193 -77 c-3 -7 -5 -2 -5 12 0 14
2 19 5 13 2 -7 2 -19 0 -25z"/>
<path d="M1520 725 c0 -11 -46 -35 -67 -35 -7 0 -13 -6 -13 -14 0 -8 -15 -17
-37 -21 -20 -4 -43 -14 -50 -23 -7 -9 -13 -12 -12 -7 3 20 -1 35 -9 35 -5 0 0
-32 9 -71 10 -39 24 -109 30 -155 l12 -86 43 67 c24 36 45 72 47 78 3 8 29 0
77 -25 l72 -36 -7 35 c-13 71 -95 292 -95 258z"/>
<path d="M1226 342 c37 -35 46 -40 70 -33 16 4 29 13 28 19 -1 7 -2 19 -2 27
-2 10 -14 14 -46 12 -24 -1 -42 -5 -39 -9 8 -14 -10 -9 -31 9 -12 9 -2 -2 20
-25z"/>
<path d="M1030 339 c0 -23 4 -26 34 -24 28 2 86 33 86 46 0 2 -27 4 -60 4 -58
0 -60 -1 -60 -26z"/>
</g>
</svg>
