<?xml version="1.0" standalone="no"?>
<!DOCTYPE svg PUBLIC "-//W3C//DTD SVG 20010904//EN"
 "http://www.w3.org/TR/2001/REC-SVG-20010904/DTD/svg10.dtd">
<svg version="1.0" xmlns="http://www.w3.org/2000/svg"
 width="453.000000pt" height="241.000000pt" viewBox="0 0 453.000000 241.000000"
 preserveAspectRatio="xMidYMid meet">

<g transform="translate(0.000000,241.000000) scale(0.100000,-0.100000)"
fill="#000000" stroke="none">
<path d="M1765 1705 c22 -8 51 -14 65 -14 21 -1 22 -3 10 -12 -12 -9 -11 -10
5 -4 11 3 49 3 85 -1 36 -4 61 -9 55 -11 -5 -1 -9 -24 -7 -51 3 -43 -19 -217
-34 -269 -4 -14 -2 -23 5 -23 6 0 11 4 11 8 0 5 6 53 14 108 8 54 17 131 20
171 l6 71 -68 7 c-37 4 -95 13 -130 21 -77 17 -91 17 -37 -1z"/>
<path d="M1880 1620 c0 -6 7 -10 15 -10 8 0 15 2 15 4 0 2 -7 6 -15 10 -8 3
-15 1 -15 -4z"/>
<path d="M2016 1450 c-9 -66 -27 -161 -39 -210 l-23 -90 542 0 c358 0 552 4
571 11 71 26 133 119 133 199 0 84 -47 155 -125 191 -37 17 -74 19 -541 19
l-501 0 -17 -120z m204 21 c5 -11 10 -29 10 -40 0 -28 -36 -28 -43 -1 -7 27
-27 25 -27 -2 0 -12 16 -39 36 -59 31 -31 37 -45 37 -80 0 -67 -51 -98 -101
-63 -29 20 -31 74 -3 74 13 0 21 -8 23 -22 4 -31 32 -29 36 2 2 19 -8 37 -38
67 -44 46 -53 92 -23 125 22 25 79 24 93 -1z m150 -1 c0 -16 -7 -20 -30 -20
-28 0 -30 -3 -30 -35 0 -32 2 -35 30 -35 23 0 30 -4 30 -20 0 -16 -7 -20 -30
-20 -28 0 -30 -2 -30 -40 0 -39 1 -40 36 -40 28 0 35 -3 32 -17 -2 -14 -15
-19 -55 -21 l-52 -3 -3 126 c-2 69 -1 130 0 135 2 6 26 10 53 10 42 0 49 -3
49 -20z m138 7 c6 -6 13 -24 17 -40 6 -24 5 -27 -19 -27 -19 0 -26 5 -26 20 0
11 -7 20 -15 20 -13 0 -15 -15 -13 -95 2 -53 7 -96 13 -98 6 -1 11 8 13 21 3
16 10 22 28 22 33 0 32 -33 -2 -66 -19 -20 -31 -24 -52 -19 -44 10 -52 30 -52
135 0 113 12 140 64 140 19 0 38 -6 44 -13z m94 -104 c2 -97 6 -118 18 -118
12 0 16 21 18 118 3 116 3 118 25 115 22 -3 22 -6 19 -123 -2 -107 -5 -122
-23 -137 -27 -23 -51 -23 -80 1 -22 18 -24 27 -28 140 l-3 121 26 0 25 0 3
-117z m233 97 c13 -14 16 -29 11 -62 -7 -49 -7 -44 0 -125 5 -59 4 -63 -15
-63 -12 0 -22 6 -22 13 -8 86 -13 107 -29 107 -6 0 -10 -25 -10 -60 0 -53 -2
-60 -20 -60 -19 0 -20 7 -20 135 l0 135 43 0 c31 0 49 -6 62 -20z m155 0 c0
-16 -7 -20 -30 -20 -28 0 -30 -3 -30 -35 0 -32 2 -35 30 -35 23 0 30 -4 30
-20 0 -16 -7 -20 -30 -20 -28 0 -30 -2 -30 -40 0 -39 1 -40 35 -40 28 0 35 -4
35 -20 0 -18 -7 -20 -55 -20 l-55 0 0 135 0 135 50 0 c43 0 50 -3 50 -20z"/>
<path d="M2770 1415 c0 -37 22 -49 34 -19 9 23 -2 54 -20 54 -9 0 -14 -11 -14
-35z"/>
<path d="M1911 1494 c0 -11 3 -14 6 -6 3 7 2 16 -1 19 -3 4 -6 -2 -5 -13z"/>
<path d="M1901 1454 c0 -11 3 -14 6 -6 3 7 2 16 -1 19 -3 4 -6 -2 -5 -13z"/>
<path d="M1883 1355 c-3 -9 -3 -18 -1 -21 3 -3 8 4 11 16 6 23 -1 27 -10 5z"/>
<path d="M1930 1255 c-23 -112 -108 -322 -136 -338 -8 -5 -12 -12 -9 -18 4 -5
-8 -29 -26 -54 -24 -33 -35 -42 -42 -33 -6 9 -7 8 -3 -4 3 -11 -4 -25 -21 -38
-14 -11 -22 -20 -19 -20 11 0 -47 -47 -58 -48 -5 0 -12 -6 -16 -13 -6 -9 -12
-8 -25 4 -23 24 -32 21 -11 -2 17 -19 17 -20 -14 -36 -17 -9 -41 -13 -53 -10
-16 5 -18 4 -8 -3 16 -11 -32 -30 -113 -43 -49 -8 -48 -8 13 -4 81 6 202 63
278 130 65 57 149 184 196 295 41 98 91 264 84 282 -2 7 -10 -14 -17 -47z"/>
<path d="M794 1275 c50 -227 161 -446 280 -551 57 -50 206 -128 233 -121 11 2
1 8 -27 16 -62 18 -142 60 -135 71 3 5 0 7 -7 5 -18 -7 -122 91 -112 106 4 7
3 9 -3 6 -11 -7 -28 20 -24 36 1 5 -3 6 -8 3 -13 -8 -74 93 -67 111 3 8 2 12
-2 9 -9 -5 -45 69 -45 91 0 7 -3 13 -7 13 -4 0 -19 42 -34 93 -15 50 -32 101
-37 112 l-9 20 4 -20z"/>
<path d="M1860 1264 c0 -8 5 -12 10 -9 6 4 8 11 5 16 -9 14 -15 11 -15 -7z"/>
<path d="M1005 920 c-3 -5 -1 -10 4 -10 6 0 11 5 11 10 0 6 -2 10 -4 10 -3 0
-8 -4 -11 -10z"/>
<path d="M1552 734 c-7 -8 -8 -14 -3 -14 10 0 25 19 20 25 -2 1 -10 -3 -17
-11z"/>
<path d="M1207 709 c7 -7 15 -10 18 -7 3 3 -2 9 -12 12 -14 6 -15 5 -6 -5z"/>
<path d="M1368 663 c7 -3 16 -2 19 1 4 3 -2 6 -13 5 -11 0 -14 -3 -6 -6z"/>
</g>
</svg>
